<?xml version="1.0" encoding="utf-8"?>
<!-- Generator: Adobe Illustrator 21.1.0, SVG Export Plug-In . SVG Version: 6.00 Build 0)  -->
<svg version="1.1" id="圖層_1" xmlns="http://www.w3.org/2000/svg" xmlns:xlink="http://www.w3.org/1999/xlink" x="0px" y="0px"
	 viewBox="0 0 117.8 118" style="enable-background:new 0 0 117.8 118;" xml:space="preserve">
<g>
	<path d="M60.6,4.5c0.3-2.9,2.3-4.5,4.5-4.3c1.1,0.1,2,0.7,2.5,1.4l-1,1c-0.4-0.5-0.9-0.8-1.6-0.9c-1.3-0.1-2.4,0.9-2.6,2.8
		c-0.2,1.9,0.6,3.2,2,3.3c0.8,0.1,1.4-0.2,1.9-0.7l0.8,1.2c-0.8,0.8-1.8,1.2-2.9,1.1C62,9.3,60.3,7.5,60.6,4.5z"/>
	<path d="M70.2,1.2l1.7,0.4l-1.7,7.2l3.5,0.8L73.4,11l-5.2-1.2L70.2,1.2z"/>
	<path d="M77.5,3.1l1.7,0.6l-2.9,8.4l-1.7-0.6L77.5,3.1z"/>
	<path d="M79.6,8.6c1.3-2.6,3.7-3.4,5.7-2.4c1,0.5,1.6,1.4,1.8,2.2L85.9,9c-0.2-0.6-0.5-1.1-1.1-1.4c-1.2-0.6-2.6,0-3.4,1.7
		c-0.8,1.7-0.5,3.2,0.7,3.8c0.7,0.3,1.4,0.3,2,0l0.4,1.4c-1,0.4-2.1,0.4-3.1-0.1C79.3,13.5,78.3,11.3,79.6,8.6z"/>
	<path d="M89.9,8.9l1.5,1L89.2,13l0,0l4.6-1.5l1.6,1.1L91.2,14l-0.4,6.3l-1.6-1.1l0.4-4.6l-1.8,0.6l-1.4,2.1l-1.5-1L89.9,8.9z"/>
	<path d="M99.8,16.4l1.3,1.5l-2.1,3.9c-0.3,0.5-0.6,1-0.9,1.6l0,0c0.6-0.2,1.1-0.5,1.6-0.8l4.1-1.7l1.3,1.5l-6.6,6l-1.1-1.2l2.7-2.5
		c0.6-0.6,1.6-1.3,2.3-1.8l0,0l-2,0.9l-3.7,1.5l-0.7-0.8l1.8-3.5l1.1-1.9l0,0c-0.6,0.6-1.4,1.6-2,2.1l-2.7,2.5l-1.1-1.2L99.8,16.4z"
		/>
	<path d="M107.1,25.1l2.9,4.6l-1.2,0.8l-2-3.1l-1.7,1.1l1.7,2.6l-1.3,0.8l-1.7-2.6l-2,1.3l2.1,3.2l-1.3,0.8l-3-4.7L107.1,25.1z"/>
	<path d="M105.4,38c0.6-0.3,1.2,0,1.5,0.6s0,1.2-0.6,1.5c-0.6,0.3-1.2,0-1.5-0.6S104.8,38.3,105.4,38z M111.5,35.7L113,35l0.7,1.6
		l-1.6,0.6l-4.2,1.5l-0.5-1.1L111.5,35.7z"/>
	<path d="M111.1,43.2c2.8-0.7,5,0.8,5.5,2.9c0.3,1.1-0.1,2.1-0.5,2.8l-1.3-0.7c0.3-0.5,0.5-1.1,0.3-1.8c-0.3-1.3-1.7-2-3.5-1.6
		c-1.9,0.4-2.8,1.6-2.5,3c0.2,0.7,0.7,1.2,1.3,1.6l-0.9,1.2c-1-0.5-1.7-1.3-1.9-2.5C107.1,46.1,108.2,43.9,111.1,43.2z"/>
	<path d="M117.4,51.3l0.2,1.8l-7.4,0.7l0.3,3.6l-1.5,0.1l-0.5-5.4L117.4,51.3z"/>
	<path d="M117.8,58.9l0,1.8l-8.9-0.1l0-1.8L117.8,58.9z"/>
	<path d="M113.3,62.6c2.9,0.4,4.4,2.5,4.1,4.7c-0.1,1.1-0.8,1.9-1.5,2.4l-1-1.1c0.5-0.4,0.9-0.9,0.9-1.5c0.2-1.3-0.8-2.5-2.7-2.7
		c-1.9-0.2-3.2,0.5-3.4,1.9c-0.1,0.8,0.2,1.4,0.6,1.9l-1.2,0.8c-0.8-0.8-1.1-1.8-0.9-3C108.6,63.9,110.4,62.3,113.3,62.6z"/>
	<path d="M116.4,72.5l-0.5,1.7l-3.7-1.1l0,0L115,77l-0.5,1.9l-2.6-3.6l-6.1,1.6l0.5-1.9l4.5-1.1l-1.1-1.5l-2.4-0.7l0.5-1.7
		L116.4,72.5z"/>
	<path d="M112.3,84.3l-1,1.7l-4.4-0.7c-0.6-0.1-1.2-0.2-1.8-0.4l0,0.1c0.4,0.4,0.8,0.9,1.2,1.3l2.9,3.3l-1,1.7l-7.7-4.3l0.8-1.4
		l3.2,1.8c0.7,0.4,1.7,1.1,2.4,1.6l0,0l-1.5-1.7l-2.6-3l0.5-0.9l3.9,0.6l2.2,0.4l0,0c-0.8-0.3-1.9-0.8-2.7-1.2l-3.2-1.8l0.8-1.4
		L112.3,84.3z"/>
	<path d="M106.4,94l-3.4,4.2l-1.1-0.9l2.3-2.9l-1.6-1.3l-2,2.4l-1.2-0.9l2-2.4l-1.8-1.5l-2.4,3L96,92.7l3.5-4.3L106.4,94z"/>
	<path d="M93.6,96.4c0.4,0.5,0.4,1.2-0.1,1.6c-0.5,0.4-1.2,0.4-1.6-0.1c-0.4-0.5-0.4-1.2,0.1-1.6C92.5,95.9,93.2,95.9,93.6,96.4z
		 M97.7,101.4l1.2,1.2l-1.3,1.2l-1.1-1.3l-2.8-3.5l0.9-0.8L97.7,101.4z"/>
	<path d="M90.5,103.5c1.5,2.5,0.9,4.9-1,6.1c-1,0.6-2,0.6-2.8,0.4l0.2-1.5c0.6,0.1,1.2,0.1,1.8-0.2c1.1-0.7,1.4-2.2,0.4-3.8
		c-1-1.6-2.4-2.1-3.6-1.4c-0.6,0.4-1,1-1.1,1.7l-1.4-0.4c0.2-1.1,0.7-2,1.7-2.6C86.5,100.6,88.9,101,90.5,103.5z"/>
	<path d="M84.8,112l-1.6,0.7l-3-6.8l-3.3,1.5l-0.6-1.4l4.9-2.2L84.8,112z"/>
	<path d="M77.8,114.8l-1.7,0.5l-2.7-8.5l1.7-0.5L77.8,114.8z"/>
	<path d="M72.8,111.7c0.6,2.9-0.9,4.9-3.1,5.4c-1.1,0.2-2.1-0.1-2.8-0.6l0.7-1.3c0.5,0.3,1.1,0.5,1.7,0.4c1.3-0.3,2.1-1.6,1.7-3.5
		c-0.4-1.9-1.5-2.9-2.9-2.6c-0.7,0.1-1.3,0.6-1.6,1.2l-1.1-0.9c0.6-1,1.4-1.6,2.5-1.8C70.1,107.6,72.2,108.8,72.8,111.7z"/>
	<path d="M64.5,117.7l-1.8,0.1l-0.2-3.9l0,0l-2.8,4l-2,0.1l2.6-3.6l-3.4-5.3l2-0.1l2.5,3.9l1.1-1.5l-0.1-2.5l1.8-0.1L64.5,117.7z"/>
	<path d="M52,117.6l-1.9-0.4l-0.7-4.4c-0.1-0.6-0.1-1.2-0.2-1.8l-0.1,0c-0.3,0.5-0.6,1.1-0.8,1.6l-2.2,3.8l-1.9-0.4l1.6-8.7l1.6,0.3
		l-0.7,3.6c-0.2,0.8-0.5,2-0.8,2.8l0,0l1.1-1.9l2-3.4l1,0.2l0.7,3.9l0.3,2.2l0,0c0.1-0.8,0.2-2.1,0.3-2.9l0.7-3.6l1.6,0.3L52,117.6z
		"/>
	<path d="M40.9,115.1l-5.1-1.9l0.5-1.4l3.4,1.3l0.7-1.9l-2.9-1.1l0.5-1.4l2.9,1.1l0.8-2.2l-3.6-1.3l0.5-1.4l5.2,1.9L40.9,115.1z"/>
	<path d="M31,109.3l-0.8,1.5l-1.5-0.9l0.9-1.4l2.4-3.7l1,0.6L31,109.3z M34.5,103.8c-0.3,0.6-1,0.8-1.5,0.5c-0.5-0.3-0.7-1-0.4-1.5
		c0.3-0.6,1-0.8,1.5-0.4C34.7,102.6,34.8,103.2,34.5,103.8z"/>
	<path d="M26.8,103.1c-1.9,2.3-4.4,2.4-6.1,0.9c-0.9-0.7-1.2-1.7-1.3-2.5l1.4-0.3c0.1,0.6,0.3,1.2,0.8,1.6c1,0.9,2.5,0.6,3.8-0.9
		c1.2-1.5,1.3-3,0.2-3.9c-0.6-0.5-1.3-0.6-2-0.5l0-1.4c1.1-0.2,2.1,0.1,3,0.8C28.3,98.4,28.7,100.8,26.8,103.1z"/>
	<path d="M17,100.4l-1.2-1.3l5.5-5l-2.4-2.7l1.1-1l3.6,4L17,100.4z"/>
	<path d="M12,94.6L11,93.2l7.1-5.3l1.1,1.4L12,94.6z"/>
	<path d="M13.4,88.9c-2.5,1.5-5,0.7-6.1-1.3c-0.6-1-0.5-2-0.3-2.8l1.4,0.2c-0.2,0.6-0.2,1.2,0.2,1.8c0.7,1.2,2.2,1.5,3.8,0.5
		c1.7-1,2.2-2.3,1.5-3.6c-0.4-0.7-1-1-1.7-1.2l0.5-1.4c1.1,0.2,2,0.8,2.5,1.8C16.4,85.1,15.9,87.5,13.4,88.9z"/>
	<path d="M5,82.9l-0.6-1.7L8,79.9l0,0l-4.6-1.4l-0.7-1.8l4.2,1.3l3.9-4.9l0.7,1.8l-2.9,3.6l1.8,0.6l2.3-0.9l0.6,1.7L5,82.9z"/>
	<path d="M1.1,71l-0.3-1.9L4.8,67c0.5-0.3,1.1-0.5,1.6-0.8l0-0.1c-0.6-0.1-1.2-0.2-1.8-0.3L0.3,65L0.1,63l8.8-1.2l0.2,1.6L5.4,64
		c-0.8,0.1-2.1,0.1-2.9,0.2l0,0l2.2,0.4l3.9,0.9l0.1,1l-3.5,1.9l-2,1l0,0c0.8-0.2,2-0.5,2.9-0.6l3.7-0.5l0.2,1.6L1.1,71z"/>
	<path d="M0,59.7l0.2-5.4l1.5,0L1.5,58l2.1,0.1l0.1-3.1l1.5,0l-0.1,3.1l2.4,0.1l0.1-3.8l1.5,0L8.9,60L0,59.7z"/>
	<path d="M2.4,48.6l-1.6-0.3l0.3-1.7L2.7,47L7,48.1l-0.2,1.1L2.4,48.6z M8.7,50.1c-0.6-0.1-1-0.7-0.9-1.3c0.1-0.6,0.7-1,1.3-0.9
		s1,0.7,0.9,1.3C9.9,49.9,9.4,50.2,8.7,50.1z"/>
	<path d="M7.9,39.8c-2.7-1.2-3.5-3.6-2.6-5.7c0.5-1,1.3-1.6,2.1-1.9l0.6,1.3c-0.6,0.2-1.1,0.6-1.3,1.2c-0.5,1.2,0.1,2.6,1.8,3.4
		c1.8,0.8,3.2,0.4,3.8-0.9c0.3-0.7,0.2-1.4-0.1-2l1.4-0.4c0.5,1,0.5,2.1,0,3.1C12.8,40,10.6,41.1,7.9,39.8z"/>
	<path d="M7.8,29.7l0.9-1.5l6.3,3.9l1.9-3l1.3,0.8l-2.9,4.5L7.8,29.7z"/>
	<path d="M12.1,23.3l1.1-1.4l7,5.5l-1.1,1.4L12.1,23.3z"/>
	<path d="M17.9,23.1c-2.1-2.1-2-4.6-0.4-6.2c0.8-0.8,1.8-1.1,2.6-1l0.1,1.5c-0.6,0-1.2,0.2-1.7,0.6c-0.9,1-0.8,2.5,0.5,3.8
		c1.4,1.4,2.8,1.5,3.8,0.5c0.5-0.5,0.7-1.2,0.7-1.9l1.4,0.1c0.1,1.1-0.3,2.1-1.1,2.9C22.5,25,20,25.2,17.9,23.1z"/>
	<path d="M21.5,13.5l1.4-1.1l2.3,3.1l0,0l0.1-4.8l1.6-1.2l-0.1,4.4l5.8,2.4L31,17.5l-4.2-1.8l-0.1,1.9l1.5,2l-1.4,1.1L21.5,13.5z"/>
	<path d="M31.9,6.6l1.8-0.8l3,3.2c0.4,0.4,0.8,0.9,1.2,1.4l0.1,0c-0.1-0.6-0.1-1.2-0.2-1.8l-0.3-4.4l1.8-0.8l3.5,8.2l-1.5,0.6
		l-1.5-3.4c-0.3-0.8-0.7-2-1-2.8l0,0L39,8.2l0.2,4l-0.9,0.4l-2.7-2.9l-1.5-1.6l0,0c0.4,0.7,1,1.8,1.4,2.6l1.5,3.4l-1.5,0.6L31.9,6.6
		z"/>
	<path d="M42.4,2.4l5.3-1.3l0.3,1.4l-3.6,0.9l0.5,2l3-0.7l0.4,1.4l-3,0.7l0.6,2.3l3.7-0.9L50,9.7L44.5,11L42.4,2.4z"/>
	<path d="M53.9,1.8l-0.2-1.7L55.5,0l0.1,1.7l0.1,4.4l-1.1,0.1L53.9,1.8z M54.1,8.3c0-0.6,0.4-1.2,1-1.2c0.6,0,1.1,0.4,1.2,1.1
		c0,0.6-0.4,1.2-1,1.2C54.6,9.4,54.1,8.9,54.1,8.3z"/>
</g>
</svg>
